<svg xmlns="http://www.w3.org/2000/svg" viewBox="0 0 1200 750"><defs><style>.cls-1{fill:#d6251d;}.cls-2{fill:#dea820;}.cls-3{fill:#1b4f38;}.cls-4{fill:#e1b0bf;}.cls-5{fill:#234c8d;}.cls-6{fill:#dd7b29;}.cls-7{fill:#3674ab;}.cls-8{fill:#f8f5e7;}</style></defs><title>資產 4</title><g id="圖層_2" data-name="圖層 2"><g id="圖層_1-2" data-name="圖層 1"><rect class="cls-1" width="1200" height="750" rx="64.41"/><rect class="cls-2" x="78.4" width="240.62" height="32.53"/><rect class="cls-3" x="78.4" y="717.47" width="168.82" height="32.53"/><rect class="cls-4" x="247.23" y="717.47" width="168.82" height="32.53"/><rect class="cls-5" x="670.32" y="717.47" width="149.86" height="32.53"/><rect class="cls-6" x="416.05" y="717.47" width="149.86" height="32.53"/><rect class="cls-7" x="550.01" y="717.47" width="149.86" height="32.53"/><rect class="cls-2" x="819.9" y="717.47" width="168.82" height="32.53"/><rect class="cls-5" x="429.7" width="120.31" height="32.53"/><rect class="cls-7" x="951.07" width="120.31" height="32.53"/><rect class="cls-4" x="550.01" width="120.31" height="32.53"/><rect class="cls-3" x="670.32" width="106.52" height="32.53"/><rect class="cls-6" x="776.85" width="174.22" height="32.53"/><rect class="cls-7" x="1161.49" y="479.96" width="38.51" height="174.45"/><rect class="cls-2" x="1161.49" y="86.63" width="38.51" height="174.45"/><rect class="cls-4" x="1161.49" y="261.08" width="38.51" height="109.44"/><rect class="cls-3" x="1161.49" y="370.52" width="38.51" height="109.44"/><rect class="cls-7" y="448.89" width="38.51" height="174.45"/><rect class="cls-6" y="161.27" width="38.51" height="117.08"/><rect class="cls-3" y="278.36" width="38.51" height="170.53"/><rect class="cls-4" y="86.63" width="38.51" height="74.64"/><path class="cls-8" d="M76.57,19.39H1120.13a57.77,57.77,0,0,1,57.77,57.77V672.84a57.77,57.77,0,0,1-57.77,57.77H79.87A57.77,57.77,0,0,1,22.1,672.84v-599A54.47,54.47,0,0,1,76.57,19.39Z"/></g></g></svg>